<?xml version="1.0" encoding="UTF-8" standalone="no"?>
<svg
   xmlns:dc="http://purl.org/dc/elements/1.1/"
   xmlns:cc="http://creativecommons.org/ns#"
   xmlns:rdf="http://www.w3.org/1999/02/22-rdf-syntax-ns#"
   xmlns:svg="http://www.w3.org/2000/svg"
   xmlns="http://www.w3.org/2000/svg"
   xmlns:sodipodi="http://sodipodi.sourceforge.net/DTD/sodipodi-0.dtd"
   xmlns:inkscape="http://www.inkscape.org/namespaces/inkscape"
   version="1.0"
   width="976.000000pt"
   height="297.000000pt"
   viewBox="0 0 976.000000 297.000000"
   preserveAspectRatio="xMidYMid meet"
   id="svg2"
   inkscape:version="0.91 r13725"
   sodipodi:docname="logo_rus_color.svg">
  <defs
     id="defs44" />
  <sodipodi:namedview
     pagecolor="#ffffff"
     bordercolor="#666666"
     borderopacity="1"
     objecttolerance="10"
     gridtolerance="10"
     guidetolerance="10"
     inkscape:pageopacity="0"
     inkscape:pageshadow="2"
     inkscape:window-width="1855"
     inkscape:window-height="1056"
     id="namedview42"
     showgrid="false"
     inkscape:zoom="0.5147541"
     inkscape:cx="-31.082803"
     inkscape:cy="185.625"
     inkscape:window-x="65"
     inkscape:window-y="24"
     inkscape:window-maximized="1"
     inkscape:current-layer="svg2" />
  <metadata
     id="metadata4">
Created by potrace 1.13, written by Peter Selinger 2001-2015
<rdf:RDF>
  <cc:Work
     rdf:about="">
    <dc:format>image/svg+xml</dc:format>
    <dc:type
       rdf:resource="http://purl.org/dc/dcmitype/StillImage" />
    <dc:title></dc:title>
  </cc:Work>
</rdf:RDF>
</metadata>
  <g
     transform="translate(0.000000,297.000000) scale(0.100000,-0.100000)"
     fill="#0e64a6"
     stroke="none"
     id="g6">
    <path
       d="M1235 2819 c-33 -5 -80 -15 -105 -22 l-45 -13 0 -714 0 -715 70 -18 c90 -23 325 -33 422 -18 214 33 310 128 335 329 26 213 -44 399 -173 457 l-38 18 48 43 c80 72 117 192 101 330 -20 187 -102 284 -266 319 -75 16 -252 18 -349 4z m255 -160 c102 -22 152 -97 152 -229 1 -168 -64 -229 -249 -238 l-103 -5 0 242 0 241 75 0 c40 0 97 -5 125 -11z m90 -656 c92 -41 124 -110 125 -263 0 -84 -3 -102 -28 -152 -24 -50 -35 -61 -84 -85 -51 -24 -71 -28 -180 -31 l-123 -4 0 282 0 282 123 -4 c94 -3 132 -9 167 -25z"
       id="path8" />
    <path
       d="M2325 2819 c-33 -5 -80 -15 -105 -22 l-45 -13 0 -724 0 -725 102 -3 103 -3 2 223 c2 180 6 222 16 220 8 -1 62 -5 122 -9 269 -15 397 71 447 301 19 85 22 354 6 436 -50 244 -176 331 -473 329 -63 -1 -142 -5 -175 -10z m335 -179 c35 -19 51 -38 73 -81 60 -120 60 -398 0 -518 -42 -84 -84 -104 -235 -109 l-118 -4 0 372 0 372 118 -4 c101 -3 124 -7 162 -28z"
       id="path10" />
    <path
       d="M3540 2814 c-231 -62 -323 -275 -323 -744 0 -220 13 -340 49 -455 62 -191 180 -289 366 -302 246 -18 396 100 458 359 69 291 47 739 -47 936 -33 71 -103 147 -163 177 -91 45 -233 58 -340 29z m210 -156 c70 -35 114 -119 148 -278 22 -106 22 -514 0 -620 -19 -90 -51 -176 -81 -222 -33 -50 -100 -81 -161 -74 -137 15 -204 149 -228 458 -20 259 13 528 79 649 54 100 150 134 243 87z"
       id="path12" />
    <path
       d="M8835 2819 c-33 -5 -80 -15 -105 -22 l-45 -13 0 -724 0 -725 102 -3 103 -3 2 223 c2 180 6 222 16 220 8 -1 62 -5 122 -9 269 -15 397 71 447 301 19 85 22 354 6 436 -50 244 -176 331 -473 329 -63 -1 -142 -5 -175 -10z m335 -179 c35 -19 51 -38 73 -81 60 -120 60 -398 0 -518 -42 -84 -84 -104 -235 -109 l-118 -4 0 372 0 372 118 -4 c101 -3 124 -7 162 -28z"
       id="path14" />
    <path
       d="M95 2798 c-3 -7 -4 -339 -3 -738 l3 -725 362 -3 363 -2 0 85 0 85 -260 0 -260 0 0 260 0 260 230 0 230 0 0 85 0 85 -230 0 -230 0 0 225 0 225 260 0 260 0 0 85 0 85 -360 0 c-279 0 -362 -3 -365 -12z"
       id="path16" />
    <path
       d="M4405 2798 c-3 -7 -4 -339 -3 -738 l3 -725 375 -5 375 -5 7 -60 c7 -66 31 -174 47 -217 10 -27 14 -28 76 -28 l65 0 0 240 0 240 -65 0 -65 0 -2 653 -3 652 -102 3 -103 3 0 -656 0 -655 -200 0 -200 0 0 655 0 655 -100 0 c-71 0 -102 -4 -105 -12z"
       id="path18" />
    <path
       d="M5585 2798 c-3 -7 -4 -339 -3 -738 l3 -725 363 -3 362 -2 0 85 0 85 -260 0 -260 0 0 260 0 260 230 0 230 0 0 85 0 85 -230 0 -230 0 0 225 0 225 260 0 260 0 0 85 0 85 -360 0 c-279 0 -362 -3 -365 -12z"
       id="path20" />
    <path
       d="M6575 2798 c-3 -7 -4 -339 -3 -738 l3 -725 103 -3 102 -3 0 336 0 335 210 0 210 0 0 -335 0 -336 103 3 102 3 0 735 0 735 -102 3 -103 3 0 -321 0 -320 -210 0 -210 0 0 320 0 320 -100 0 c-71 0 -102 -4 -105 -12z"
       id="path22" />
    <path
       d="M7610 2725 l0 -85 165 0 165 0 2 -652 3 -653 103 -3 102 -3 0 656 0 655 165 0 165 0 0 85 0 85 -435 0 -435 0 0 -85z"
       id="path24" />
    <path
       d="M5610 786 c0 -2 47 -101 105 -220 102 -210 104 -218 90 -245 -21 -42 -72 -81 -105 -81 -29 0 -40 -15 -40 -56 0 -22 3 -24 55 -24 125 0 160 48 310 415 43 105 80 196 82 203 4 10 -8 12 -52 10 l-57 -3 -59 -159 c-33 -88 -60 -161 -62 -162 -1 -1 -36 72 -77 162 l-75 164 -57 0 c-32 0 -58 -2 -58 -4z"
       id="path26" />
    <path
       d="M6170 480 l0 -310 50 0 50 0 0 141 0 141 37 -7 c76 -14 104 -47 153 -182 l34 -93 58 0 58 0 -21 53 c-12 28 -29 75 -39 103 -35 100 -73 149 -137 176 l-31 13 109 130 c60 72 109 133 109 138 0 4 -27 7 -59 7 l-59 0 -104 -132 -103 -133 -3 133 -3 132 -49 0 -50 0 0 -310z"
       id="path28" />
    <path
       d="M6723 783 l-33 -4 0 -305 0 -304 50 0 50 0 0 119 0 118 78 5 c58 3 89 11 122 29 66 37 84 68 88 152 4 89 -16 131 -78 166 -37 21 -59 25 -144 27 -56 1 -116 0 -133 -3z m207 -88 c32 -16 50 -54 50 -101 0 -68 -99 -131 -170 -109 -18 6 -20 14 -20 115 0 105 1 109 23 113 31 7 86 -2 117 -18z"
       id="path30" />
    <path
       d="M7339 763 c-12 -31 -199 -585 -199 -590 0 -2 24 -3 54 -3 l54 0 32 95 32 96 96 -3 96 -3 30 -93 30 -92 53 0 c35 0 53 4 53 12 0 7 -46 146 -101 310 l-102 298 -59 0 c-55 0 -59 -2 -69 -27z m105 -222 c20 -57 34 -106 32 -108 -2 -2 -35 -3 -73 -1 l-69 3 35 108 c18 59 35 106 36 105 2 -2 19 -50 39 -107z"
       id="path32" />
    <path
       d="M7770 480 l0 -311 56 3 57 3 85 135 c46 74 107 173 133 220 l49 84 0 -222 0 -222 50 0 50 0 0 310 0 310 -52 0 -53 0 -100 -162 c-55 -89 -117 -191 -137 -228 l-38 -65 0 228 0 227 -50 0 -50 0 0 -310z"
       id="path34" />
    <path
       d="M8390 480 l0 -310 50 0 50 0 0 140 0 140 135 0 135 0 0 -140 0 -140 50 0 50 0 0 310 0 310 -50 0 -50 0 0 -130 0 -130 -135 0 -135 0 0 130 0 130 -50 0 -50 0 0 -310z"
       id="path36" />
    <path
       d="M9149 763 c-12 -31 -199 -585 -199 -590 0 -2 24 -3 54 -3 l54 0 32 95 32 96 96 -3 96 -3 30 -93 30 -92 53 0 c35 0 53 4 53 12 0 7 -46 146 -101 310 l-102 298 -59 0 c-55 0 -59 -2 -69 -27z m105 -222 c20 -57 34 -106 32 -108 -2 -2 -35 -3 -73 -1 l-69 3 35 108 c18 59 35 106 36 105 2 -2 19 -50 39 -107z"
       id="path38" />
    <path
       d="M120 615 l0 -165 2615 0 2615 0 0 165 0 165 -2615 0 -2615 0 0 -165z"
       id="path40" />
<path style="fill:#fdc300;"
       d="M120 285 l0 -165 2615 0 2615 0 0 165 0 165 -2615 0 -2615 0 0 -165z"
       id="path40" />
  </g>
 
</svg>
