<svg id="svg" version="1.1" width="400" height="111" xmlns="http://www.w3.org/2000/svg" xmlns:xlink="http://www.w3.org/1999/xlink" style="display: block;"><g id="svgg"><path id="path0" d="M14.400 103.200 L 14.400 109.200 124.000 109.200 L 233.600 109.200 233.600 103.200 L 233.600 97.200 124.000 97.200 L 14.400 97.200 14.400 103.200 " stroke="none" fill="#ffc400" fill-rule="evenodd"></path><path id="path1" d="M29.300 1.876 C 29.685 1.976,30.315 1.976,30.700 1.876 C 31.085 1.775,30.770 1.693,30.000 1.693 C 29.230 1.693,28.915 1.775,29.300 1.876 M64.700 1.882 C 65.195 1.978,66.005 1.978,66.500 1.882 C 66.995 1.787,66.590 1.709,65.600 1.709 C 64.610 1.709,64.205 1.787,64.700 1.882 M154.900 1.876 C 155.285 1.976,155.915 1.976,156.300 1.876 C 156.685 1.775,156.370 1.693,155.600 1.693 C 154.830 1.693,154.515 1.775,154.900 1.876 M209.384 2.900 C 209.279 3.175,209.239 15.010,209.296 29.200 L 209.400 55.000 209.600 28.700 C 209.710 14.235,209.749 2.400,209.687 2.400 C 209.626 2.400,209.489 2.625,209.384 2.900 M120.120 23.200 C 120.120 24.410,120.195 24.905,120.287 24.300 C 120.378 23.695,120.378 22.705,120.287 22.100 C 120.195 21.495,120.120 21.990,120.120 23.200 M380.120 23.200 C 380.120 24.410,380.195 24.905,380.287 24.300 C 380.378 23.695,380.378 22.705,380.287 22.100 C 380.195 21.495,380.120 21.990,380.120 23.200 M145.734 32.400 C 145.734 34.050,145.805 34.725,145.891 33.900 C 145.978 33.075,145.978 31.725,145.891 30.900 C 145.805 30.075,145.734 30.750,145.734 32.400 M111.700 45.076 C 112.085 45.176,112.715 45.176,113.100 45.076 C 113.485 44.975,113.170 44.893,112.400 44.893 C 111.630 44.893,111.315 44.975,111.700 45.076 M371.700 45.076 C 372.085 45.176,372.715 45.176,373.100 45.076 C 373.485 44.975,373.170 44.893,372.400 44.893 C 371.630 44.893,371.315 44.975,371.700 45.076 M223.000 64.800 C 223.000 70.258,223.135 74.640,223.300 74.538 C 223.465 74.436,223.600 70.054,223.600 64.800 C 223.600 59.546,223.465 55.164,223.300 55.062 C 223.135 54.960,223.000 59.342,223.000 64.800 M30.500 63.076 C 30.885 63.176,31.515 63.176,31.900 63.076 C 32.285 62.975,31.970 62.893,31.200 62.893 C 30.430 62.893,30.115 62.975,30.500 63.076 M154.900 63.076 C 155.285 63.176,155.915 63.176,156.300 63.076 C 156.685 62.975,156.370 62.893,155.600 62.893 C 154.830 62.893,154.515 62.975,154.900 63.076 " stroke="none" fill="#0061aa" fill-rule="evenodd"></path><path id="path2" d="M28.165 2.041 C 20.299 2.626,15.245 7.734,13.433 16.933 C 13.339 17.410,13.028 18.790,12.742 20.000 C 11.923 23.463,12.070 42.112,12.947 45.980 C 16.254 60.565,23.367 64.947,39.261 62.189 C 44.183 61.335,44.000 61.459,44.000 58.981 C 44.000 56.293,44.390 56.449,37.481 56.379 C 26.494 56.269,24.368 54.941,22.145 46.800 C 21.218 43.404,20.256 35.761,20.671 35.086 C 20.778 34.913,24.675 34.792,29.332 34.817 L 37.800 34.861 37.800 31.400 L 37.800 27.939 29.272 27.984 L 20.744 28.029 20.840 25.314 C 20.892 23.821,21.075 21.970,21.244 21.200 C 21.414 20.430,21.637 19.350,21.738 18.800 C 23.183 10.979,26.263 8.771,36.200 8.432 L 43.000 8.200 43.119 5.936 L 43.238 3.673 40.319 2.998 C 36.388 2.090,32.072 1.750,28.165 2.041 M56.800 2.620 C 55.150 2.933,53.530 3.267,53.200 3.364 C 52.870 3.460,52.465 3.553,52.300 3.569 C 52.135 3.586,52.000 16.560,52.000 32.400 C 52.000 48.240,52.135 61.214,52.300 61.231 C 52.465 61.247,52.870 61.338,53.200 61.432 C 60.285 63.446,73.054 63.195,77.885 60.947 C 87.785 56.339,88.535 35.544,78.960 31.182 C 76.851 30.221,76.821 30.052,78.554 28.930 C 85.512 24.424,84.174 8.163,76.511 4.097 C 72.783 2.119,63.223 1.402,56.800 2.620 M100.800 2.630 C 99.150 2.937,97.530 3.267,97.200 3.364 C 96.870 3.460,96.465 3.553,96.300 3.569 C 96.135 3.586,96.000 16.746,96.000 32.814 L 96.000 62.027 100.300 61.914 L 104.600 61.800 104.708 53.200 L 104.815 44.600 111.508 44.589 C 119.417 44.576,120.876 44.125,124.217 40.662 C 131.058 33.573,130.219 10.428,122.933 5.194 C 118.779 2.212,109.077 1.087,100.800 2.630 M150.079 2.601 C 143.596 4.414,139.976 9.509,138.143 19.400 C 137.103 25.007,137.094 40.153,138.127 45.400 C 140.691 58.419,145.891 63.195,156.983 62.715 C 165.519 62.346,170.710 57.457,172.604 48.002 C 172.671 47.671,172.830 46.950,172.958 46.400 C 173.087 45.850,173.308 44.860,173.449 44.200 C 174.566 39.001,173.765 20.468,172.186 14.992 C 169.199 4.627,160.424 -0.291,150.079 2.601 M360.800 2.630 C 359.150 2.937,357.530 3.267,357.200 3.364 C 356.870 3.460,356.465 3.553,356.300 3.569 C 356.135 3.586,356.000 16.746,356.000 32.814 L 356.000 62.027 360.300 61.914 L 364.600 61.800 364.708 53.200 L 364.815 44.600 371.508 44.589 C 379.417 44.576,380.876 44.125,384.217 40.662 C 391.058 33.573,390.219 10.428,382.933 5.194 C 378.779 2.212,369.077 1.087,360.800 2.630 M185.200 32.386 L 185.200 62.000 200.165 62.000 L 215.130 62.000 215.377 63.500 C 215.513 64.325,215.691 65.540,215.771 66.200 C 216.090 68.803,216.926 72.431,217.254 72.633 C 217.444 72.751,217.600 73.197,217.600 73.624 C 217.600 74.318,217.895 74.400,220.400 74.400 L 223.200 74.400 223.200 64.800 L 223.200 55.200 220.600 55.200 L 218.000 55.200 218.000 29.000 L 218.000 2.800 213.803 2.800 L 209.606 2.800 209.503 28.900 L 209.400 55.000 201.600 55.108 L 193.800 55.216 193.800 29.108 L 193.800 3.000 189.500 2.886 L 185.200 2.773 185.200 32.386 M232.400 32.400 L 232.400 62.010 247.100 61.905 L 261.800 61.800 261.800 58.600 L 261.800 55.400 251.400 55.200 L 241.000 55.000 241.000 44.700 L 241.000 34.400 250.100 34.400 L 259.200 34.400 259.200 31.000 L 259.200 27.600 250.100 27.600 L 241.000 27.600 241.000 18.700 L 241.000 9.800 251.400 9.600 L 261.800 9.400 261.800 6.200 L 261.800 3.000 247.100 2.895 L 232.400 2.790 232.400 32.400 M272.000 32.400 L 272.000 62.027 276.300 61.914 L 280.600 61.800 280.600 48.500 L 280.600 35.200 288.695 35.200 L 296.789 35.200 296.895 48.500 L 297.000 61.800 301.300 61.914 L 305.600 62.027 305.600 32.400 L 305.600 2.773 301.300 2.886 L 297.000 3.000 296.894 15.700 L 296.789 28.400 288.694 28.400 L 280.600 28.400 280.600 15.700 L 280.600 3.000 276.300 2.886 L 272.000 2.773 272.000 32.400 M313.200 6.196 L 313.200 9.600 319.800 9.600 L 326.400 9.600 326.400 35.814 L 326.400 62.027 330.700 61.914 L 335.000 61.800 335.103 35.710 L 335.206 9.620 341.703 9.510 L 348.200 9.400 348.200 6.200 L 348.200 3.000 330.700 2.896 L 313.200 2.792 313.200 6.196 M158.000 8.623 C 167.812 11.434,168.367 50.394,158.673 55.831 C 156.234 57.199,152.456 56.515,150.429 54.339 C 145.938 49.518,144.313 29.924,147.334 17.000 C 148.440 12.268,151.092 9.003,154.334 8.382 C 155.833 8.095,156.253 8.122,158.000 8.623 M68.671 9.004 C 72.959 10.287,74.577 13.031,74.322 18.589 C 74.018 25.230,71.591 27.259,63.600 27.552 L 60.600 27.662 60.600 18.018 L 60.600 8.373 63.800 8.439 C 65.560 8.475,67.752 8.729,68.671 9.004 M112.127 8.778 C 118.556 9.606,121.199 15.672,120.045 26.948 C 119.183 35.374,117.094 37.466,109.132 37.872 L 104.600 38.103 104.600 23.251 L 104.600 8.400 107.000 8.413 C 108.320 8.420,110.627 8.584,112.127 8.778 M372.127 8.778 C 378.556 9.606,381.199 15.672,380.045 26.948 C 379.183 35.374,377.094 37.466,369.132 37.872 L 364.600 38.103 364.600 23.251 L 364.600 8.400 367.000 8.413 C 368.320 8.420,370.627 8.584,372.127 8.778 M71.476 35.018 C 75.363 36.307,76.999 39.439,76.875 45.353 C 76.701 53.642,74.329 55.833,65.033 56.291 L 60.600 56.509 60.600 45.210 L 60.600 33.911 65.000 34.120 C 67.534 34.241,70.280 34.621,71.476 35.018 M326.880 78.880 C 325.737 80.023,326.429 82.191,328.067 82.602 C 330.158 83.127,331.593 81.486,330.820 79.453 C 330.377 78.287,327.841 77.919,326.880 78.880 M333.680 78.880 C 332.537 80.023,333.229 82.191,334.867 82.602 C 336.958 83.127,338.393 81.486,337.620 79.453 C 337.177 78.287,334.641 77.919,333.680 78.880 M243.600 83.981 C 243.600 84.190,245.425 88.040,247.655 92.535 C 252.087 101.470,252.142 101.733,250.092 104.028 C 249.312 104.901,248.515 105.314,247.300 105.477 C 244.458 105.858,244.847 109.205,247.733 109.198 C 252.637 109.185,254.287 106.976,260.209 92.495 C 264.236 82.650,264.120 83.599,261.300 83.603 L 259.000 83.606 256.630 90.093 L 254.261 96.580 253.104 93.990 C 252.468 92.565,251.122 89.645,250.114 87.500 L 248.279 83.600 245.940 83.600 C 244.653 83.600,243.600 83.771,243.600 83.981 M266.000 96.221 L 266.000 108.842 268.100 108.721 L 270.200 108.600 270.311 103.100 L 270.423 97.600 271.464 97.600 C 274.083 97.600,275.403 99.210,277.698 105.200 L 279.000 108.600 281.300 108.720 C 284.051 108.863,284.011 109.288,281.800 103.463 C 279.656 97.816,278.903 96.671,276.541 95.471 L 274.750 94.561 278.975 89.439 C 283.946 83.414,283.891 83.599,280.700 83.604 L 278.200 83.608 274.400 88.570 L 270.600 93.531 270.488 88.566 L 270.376 83.600 268.188 83.600 L 266.000 83.600 266.000 96.221 M287.300 83.865 C 286.915 84.020,286.800 86.918,286.800 96.454 L 286.800 108.842 288.900 108.721 L 291.000 108.600 291.112 103.954 L 291.224 99.308 293.900 99.034 C 301.847 98.220,305.590 91.158,300.885 85.858 C 299.208 83.970,290.284 82.661,287.300 83.865 M308.866 95.683 C 304.057 109.969,304.226 108.800,306.967 108.800 L 309.134 108.800 310.405 104.986 L 311.675 101.172 315.494 101.286 L 319.312 101.400 320.556 105.000 L 321.800 108.600 323.756 108.724 C 326.682 108.910,326.701 109.072,322.242 95.984 L 318.091 83.800 315.518 83.683 L 312.945 83.567 308.866 95.683 M330.000 96.221 L 330.000 108.842 332.100 108.721 L 334.200 108.600 334.306 96.100 L 334.411 83.600 332.206 83.600 L 330.000 83.600 330.000 96.221 M339.600 96.221 L 339.600 108.842 341.700 108.721 L 343.800 108.600 343.911 102.900 L 344.022 97.200 349.211 97.200 L 354.400 97.200 354.400 103.021 L 354.400 108.842 356.500 108.721 L 358.600 108.600 358.706 96.100 L 358.811 83.600 356.606 83.600 L 354.400 83.600 354.400 88.800 L 354.400 94.000 349.200 94.000 L 344.000 94.000 344.000 88.800 L 344.000 83.600 341.800 83.600 L 339.600 83.600 339.600 96.221 M366.066 95.683 C 361.257 109.969,361.426 108.800,364.167 108.800 L 366.334 108.800 367.605 104.986 L 368.875 101.172 372.694 101.286 L 376.512 101.400 377.756 105.000 L 379.000 108.600 380.956 108.724 C 383.882 108.910,383.901 109.072,379.442 95.984 L 375.291 83.800 372.718 83.683 L 370.145 83.567 366.066 95.683 M14.400 90.600 L 14.400 97.200 124.000 97.200 L 233.600 97.200 233.600 90.600 L 233.600 84.000 124.000 84.000 L 14.400 84.000 14.400 90.600 M296.441 87.713 C 300.290 90.300,298.046 95.595,293.100 95.599 L 291.200 95.600 291.200 91.200 L 291.200 86.800 293.141 86.800 C 294.499 86.800,295.490 87.074,296.441 87.713 M315.688 97.919 C 312.416 98.071,312.537 98.402,314.071 93.474 L 315.383 89.257 316.827 93.528 L 318.271 97.800 315.688 97.919 M372.888 97.919 C 369.616 98.071,369.737 98.402,371.271 93.474 L 372.583 89.257 374.027 93.528 L 375.471 97.800 372.888 97.919 " stroke="none" fill="#0064aa" fill-rule="evenodd"></path><path id="path3" d="M187.700 2.694 C 188.745 2.776,190.455 2.776,191.500 2.694 C 192.545 2.612,191.690 2.544,189.600 2.544 C 187.510 2.544,186.655 2.612,187.700 2.694 M211.700 2.694 C 212.745 2.776,214.455 2.776,215.500 2.694 C 216.545 2.612,215.690 2.544,213.600 2.544 C 211.510 2.544,210.655 2.612,211.700 2.694 M240.100 2.699 C 244.005 2.765,250.395 2.765,254.300 2.699 C 258.205 2.634,255.010 2.580,247.200 2.580 C 239.390 2.580,236.195 2.634,240.100 2.699 M274.500 2.694 C 275.545 2.776,277.255 2.776,278.300 2.694 C 279.345 2.612,278.490 2.544,276.400 2.544 C 274.310 2.544,273.455 2.612,274.500 2.694 M299.300 2.694 C 300.345 2.776,302.055 2.776,303.100 2.694 C 304.145 2.612,303.290 2.544,301.200 2.544 C 299.110 2.544,298.255 2.612,299.300 2.694 M322.300 2.700 C 326.975 2.764,334.625 2.764,339.300 2.700 C 343.975 2.636,340.150 2.583,330.800 2.583 C 321.450 2.583,317.625 2.636,322.300 2.700 M34.082 8.696 C 35.558 8.773,38.078 8.773,39.682 8.697 C 41.287 8.621,40.080 8.558,37.000 8.558 C 33.920 8.557,32.607 8.619,34.082 8.696 M61.900 8.689 C 62.615 8.778,63.785 8.778,64.500 8.689 C 65.215 8.601,64.630 8.528,63.200 8.528 C 61.770 8.528,61.185 8.601,61.900 8.689 M106.100 8.691 C 106.925 8.778,108.275 8.778,109.100 8.691 C 109.925 8.605,109.250 8.534,107.600 8.534 C 105.950 8.534,105.275 8.605,106.100 8.691 M366.100 8.691 C 366.925 8.778,368.275 8.778,369.100 8.691 C 369.925 8.605,369.250 8.534,367.600 8.534 C 365.950 8.534,365.275 8.605,366.100 8.691 M246.100 9.899 C 248.905 9.968,253.495 9.968,256.300 9.899 C 259.105 9.830,256.810 9.774,251.200 9.774 C 245.590 9.774,243.295 9.830,246.100 9.899 M317.119 9.898 C 318.944 9.972,321.824 9.972,323.519 9.897 C 325.214 9.822,323.720 9.761,320.200 9.762 C 316.680 9.762,315.294 9.824,317.119 9.898 M338.319 9.898 C 340.144 9.972,343.024 9.972,344.719 9.897 C 346.414 9.822,344.920 9.761,341.400 9.762 C 337.880 9.762,336.494 9.824,338.319 9.898 M61.900 27.489 C 62.615 27.578,63.785 27.578,64.500 27.489 C 65.215 27.401,64.630 27.328,63.200 27.328 C 61.770 27.328,61.185 27.401,61.900 27.489 M245.500 27.499 C 247.975 27.569,252.025 27.569,254.500 27.499 C 256.975 27.428,254.950 27.371,250.000 27.371 C 245.050 27.371,243.025 27.428,245.500 27.499 M24.922 27.899 C 27.299 27.970,31.079 27.969,33.322 27.898 C 35.565 27.827,33.620 27.769,29.000 27.769 C 24.380 27.770,22.545 27.828,24.922 27.899 M259.337 31.000 C 259.339 32.760,259.409 33.430,259.493 32.489 C 259.578 31.549,259.577 30.109,259.491 29.289 C 259.405 28.470,259.336 29.240,259.337 31.000 M284.700 28.298 C 286.955 28.370,290.645 28.370,292.900 28.298 C 295.155 28.227,293.310 28.169,288.800 28.169 C 284.290 28.169,282.445 28.227,284.700 28.298 M62.311 34.293 C 63.251 34.378,64.691 34.377,65.511 34.291 C 66.330 34.205,65.560 34.136,63.800 34.137 C 62.040 34.139,61.370 34.209,62.311 34.293 M245.500 34.699 C 247.975 34.769,252.025 34.769,254.500 34.699 C 256.975 34.628,254.950 34.571,250.000 34.571 C 245.050 34.571,243.025 34.628,245.500 34.699 M24.922 35.099 C 27.299 35.170,31.079 35.169,33.322 35.098 C 35.565 35.027,33.620 34.969,29.000 34.969 C 24.380 34.970,22.545 35.028,24.922 35.099 M284.700 35.498 C 286.955 35.570,290.645 35.570,292.900 35.498 C 295.155 35.427,293.310 35.369,288.800 35.369 C 284.290 35.369,282.445 35.427,284.700 35.498 M106.100 37.891 C 106.925 37.978,108.275 37.978,109.100 37.891 C 109.925 37.805,109.250 37.734,107.600 37.734 C 105.950 37.734,105.275 37.805,106.100 37.891 M366.100 37.891 C 366.925 37.978,368.275 37.978,369.100 37.891 C 369.925 37.805,369.250 37.734,367.600 37.734 C 365.950 37.734,365.275 37.805,366.100 37.891 M197.700 55.098 C 199.845 55.170,203.355 55.170,205.500 55.098 C 207.645 55.026,205.890 54.967,201.600 54.967 C 197.310 54.967,195.555 55.026,197.700 55.098 M219.100 55.089 C 219.815 55.178,220.985 55.178,221.700 55.089 C 222.415 55.001,221.830 54.928,220.400 54.928 C 218.970 54.928,218.385 55.001,219.100 55.089 M246.100 55.099 C 248.905 55.168,253.495 55.168,256.300 55.099 C 259.105 55.030,256.810 54.974,251.200 54.974 C 245.590 54.974,243.295 55.030,246.100 55.099 M34.700 56.297 C 36.295 56.373,38.905 56.373,40.500 56.297 C 42.095 56.221,40.790 56.159,37.600 56.159 C 34.410 56.159,33.105 56.221,34.700 56.297 M62.311 56.293 C 63.251 56.378,64.691 56.377,65.511 56.291 C 66.330 56.205,65.560 56.136,63.800 56.137 C 62.040 56.139,61.370 56.209,62.311 56.293 M98.500 62.294 C 99.545 62.376,101.255 62.376,102.300 62.294 C 103.345 62.212,102.490 62.144,100.400 62.144 C 98.310 62.144,97.455 62.212,98.500 62.294 M193.326 62.300 C 197.466 62.365,204.126 62.365,208.126 62.299 C 212.127 62.234,208.740 62.181,200.600 62.181 C 192.460 62.181,189.187 62.234,193.326 62.300 M240.100 62.299 C 244.005 62.365,250.395 62.365,254.300 62.299 C 258.205 62.234,255.010 62.180,247.200 62.180 C 239.390 62.180,236.195 62.234,240.100 62.299 M274.500 62.294 C 275.545 62.376,277.255 62.376,278.300 62.294 C 279.345 62.212,278.490 62.144,276.400 62.144 C 274.310 62.144,273.455 62.212,274.500 62.294 M299.300 62.294 C 300.345 62.376,302.055 62.376,303.100 62.294 C 304.145 62.212,303.290 62.144,301.200 62.144 C 299.110 62.144,298.255 62.212,299.300 62.294 M328.713 62.295 C 329.876 62.376,331.676 62.376,332.713 62.293 C 333.751 62.211,332.800 62.145,330.600 62.146 C 328.400 62.147,327.551 62.214,328.713 62.295 M358.500 62.294 C 359.545 62.376,361.255 62.376,362.300 62.294 C 363.345 62.212,362.490 62.144,360.400 62.144 C 358.310 62.144,357.455 62.212,358.500 62.294 M219.100 74.689 C 219.815 74.778,220.985 74.778,221.700 74.689 C 222.415 74.601,221.830 74.528,220.400 74.528 C 218.970 74.528,218.385 74.601,219.100 74.689 " stroke="none" fill="#0066a6" fill-rule="evenodd"></path><path id="path4" d="" stroke="none" fill="#0068a7" fill-rule="evenodd"></path></g></svg>
